# Blender 4.4.3
# www.blender.org
o lamp_glass_01
v 15.621345 3.017177 -0.772042
v 15.625751 3.322024 -0.721674
v 15.414304 3.322024 -0.899099
v 15.464671 3.017177 -0.903506
v 15.626014 3.017177 -0.772449
v 15.630422 3.322024 -0.722081
v 15.807846 3.322024 -0.933528
v 15.757479 3.017177 -0.929121
v 15.464264 3.017177 -0.908174
v 15.413896 3.322024 -0.903768
v 15.591320 3.322024 -1.115214
v 15.595727 3.017177 -1.064847
v 15.757070 3.017177 -0.933793
v 15.807437 3.322024 -0.938200
v 15.595991 3.322024 -1.115625
v 15.600397 3.017177 -1.065257
v -13.678055 3.773242 -0.018370
v -13.705973 4.011297 -0.046289
v -13.490426 4.011297 -0.046289
v -13.518345 3.773242 -0.018370
v -13.679976 3.773242 0.143261
v -13.707894 4.011297 0.171179
v -13.707894 4.011297 -0.044368
v -13.679976 3.773242 -0.016450
v -13.516420 3.773242 -0.016450
v -13.488502 4.011297 -0.044368
v -13.488502 4.011297 0.171179
v -13.516420 3.773242 0.143261
v -13.518343 3.773242 0.145183
v -13.490426 4.011297 0.173102
v -13.705973 4.011297 0.173102
v -13.678055 3.773242 0.145183
v -9.844339 4.032692 -4.906700
v -9.851195 4.270747 -4.945582
v -9.674630 4.270747 -4.821950
v -9.713512 4.032692 -4.815093
v -9.938622 4.032692 -4.775401
v -9.977504 4.270747 -4.768545
v -9.853871 4.270747 -4.945111
v -9.847015 4.032692 -4.906229
v -9.713038 4.032692 -4.812417
v -9.674156 4.270747 -4.819273
v -9.797788 4.270747 -4.642708
v -9.804645 4.032692 -4.681590
v -9.807323 4.032692 -4.681118
v -9.800467 4.270747 -4.642236
v -9.977033 4.270747 -4.765868
v -9.938149 4.032692 -4.772724
v -5.901526 4.032692 -4.906417
v -5.894669 4.270747 -4.945299
v -5.771037 4.270747 -4.768734
v -5.809919 4.032692 -4.775590
v -6.035028 4.032692 -4.815283
v -6.073911 4.270747 -4.822139
v -5.897346 4.270747 -4.945772
v -5.904201 4.032692 -4.906890
v -5.810390 4.032692 -4.772913
v -5.771507 4.270747 -4.766056
v -5.948072 4.270747 -4.642424
v -5.941217 4.032692 -4.681306
v -5.943894 4.032692 -4.681779
v -5.950751 4.270747 -4.642897
v -6.074383 4.270747 -4.819462
v -6.035501 4.032692 -4.812606
v -1.812670 4.032692 -4.902429
v -1.799166 4.270747 -4.939529
v -1.708073 4.270747 -4.744178
v -1.745174 4.032692 -4.757681
v -1.959970 4.032692 -4.835862
v -1.997071 4.270747 -4.849366
v -1.801720 4.270747 -4.940460
v -1.815223 4.032692 -4.903358
v -1.746101 4.032692 -4.755127
v -1.709000 4.270747 -4.741622
v -1.904352 4.270747 -4.650529
v -1.890849 4.032692 -4.687630
v -1.893404 4.032692 -4.688560
v -1.906908 4.270747 -4.651460
v -1.998002 4.270747 -4.846811
v -1.960900 4.032692 -4.833307
v 2.270689 4.032692 -4.868311
v 2.300935 4.270747 -4.893689
v 2.282148 4.270747 -4.678963
v 2.256769 4.032692 -4.709208
v 2.109840 4.032692 -4.884312
v 2.084462 4.270747 -4.914557
v 2.299188 4.270747 -4.895771
v 2.268943 4.032692 -4.870393
v 2.254689 4.032692 -4.707459
v 2.280067 4.270747 -4.677214
v 2.065341 4.270747 -4.696000
v 2.095586 4.032692 -4.721378
v 2.093838 4.032692 -4.723462
v 2.063593 4.270747 -4.698084
v 2.082379 4.270747 -4.912811
v 2.107758 4.032692 -4.882565
v 6.186178 4.032692 -4.902429
v 6.199682 4.270747 -4.939529
v 6.290777 4.270747 -4.744178
v 6.253675 4.032692 -4.757681
v 6.038879 4.032692 -4.835862
v 6.001778 4.270747 -4.849366
v 6.197129 4.270747 -4.940460
v 6.183626 4.032692 -4.903358
v 6.252748 4.032692 -4.755127
v 6.289848 4.270747 -4.741622
v 6.094497 4.270747 -4.650529
v 6.108000 4.032692 -4.687630
v 6.105445 4.032692 -4.688560
v 6.091941 4.270747 -4.651460
v 6.000847 4.270747 -4.846811
v 6.037949 4.032692 -4.833307
v 10.028114 4.032692 -4.909567
v 10.028114 4.270747 -4.949049
v 10.180529 4.270747 -4.796635
v 10.141047 4.032692 -4.796635
v 9.912465 4.032692 -4.796635
v 9.872982 4.270747 -4.796636
v 10.025397 4.270747 -4.949050
v 10.025397 4.032692 -4.909568
v 10.141048 4.032692 -4.793917
v 10.180532 4.270747 -4.793916
v 10.028117 4.270747 -4.641501
v 10.028116 4.032692 -4.680984
v 10.025397 4.032692 -4.680984
v 10.025396 4.270747 -4.641502
v 9.872982 4.270747 -4.793917
v 9.912464 4.032692 -4.793918
v -9.844339 4.032692 4.628189
v -9.851195 4.270747 4.589307
v -9.674630 4.270747 4.712939
v -9.713512 4.032692 4.719795
v -9.938622 4.032692 4.759488
v -9.977504 4.270747 4.766343
v -9.853871 4.270747 4.589778
v -9.847015 4.032692 4.628660
v -9.713038 4.032692 4.722472
v -9.674156 4.270747 4.715616
v -9.797788 4.270747 4.892181
v -9.804645 4.032692 4.853299
v -9.807323 4.032692 4.853771
v -9.800467 4.270747 4.892653
v -9.977033 4.270747 4.769021
v -9.938149 4.032692 4.762165
v -5.901526 4.032692 4.628472
v -5.894669 4.270747 4.589590
v -5.771037 4.270747 4.766155
v -5.809919 4.032692 4.759299
v -6.035028 4.032692 4.719606
v -6.073911 4.270747 4.712749
v -5.897346 4.270747 4.589117
v -5.904201 4.032692 4.628000
v -5.810390 4.032692 4.761977
v -5.771507 4.270747 4.768833
v -5.948072 4.270747 4.892466
v -5.941217 4.032692 4.853583
v -5.943894 4.032692 4.853110
v -5.950751 4.270747 4.891993
v -6.074383 4.270747 4.715427
v -6.035501 4.032692 4.722282
v -1.812670 4.032692 4.632461
v -1.799166 4.270747 4.595360
v -1.708073 4.270747 4.790711
v -1.745174 4.032692 4.777208
v -1.959970 4.032692 4.699028
v -1.997071 4.270747 4.685524
v -1.801720 4.270747 4.594430
v -1.815223 4.032692 4.631531
v -1.746101 4.032692 4.779763
v -1.709000 4.270747 4.793267
v -1.904352 4.270747 4.884361
v -1.890849 4.032692 4.847260
v -1.893404 4.032692 4.846329
v -1.906908 4.270747 4.883430
v -1.998002 4.270747 4.688078
v -1.960900 4.032692 4.701582
v 2.270689 4.032692 4.666579
v 2.300935 4.270747 4.641201
v 2.282148 4.270747 4.855927
v 2.256769 4.032692 4.825682
v 2.109840 4.032692 4.650578
v 2.084462 4.270747 4.620332
v 2.299188 4.270747 4.639118
v 2.268943 4.032692 4.664497
v 2.254689 4.032692 4.827430
v 2.280067 4.270747 4.857676
v 2.065341 4.270747 4.838890
v 2.095586 4.032692 4.813510
v 2.093838 4.032692 4.811427
v 2.063593 4.270747 4.836805
v 2.082379 4.270747 4.622079
v 2.107758 4.032692 4.652324
v 6.186178 4.032692 4.632461
v 6.199682 4.270747 4.595360
v 6.290777 4.270747 4.790711
v 6.253675 4.032692 4.777208
v 6.038879 4.032692 4.699028
v 6.001778 4.270747 4.685524
v 6.197129 4.270747 4.594430
v 6.183626 4.032692 4.631531
v 6.252748 4.032692 4.779763
v 6.289848 4.270747 4.793267
v 6.094497 4.270747 4.884361
v 6.108000 4.032692 4.847260
v 6.105445 4.032692 4.846329
v 6.091941 4.270747 4.883430
v 6.000847 4.270747 4.688078
v 6.037949 4.032692 4.701582
v 10.224010 4.032692 4.651161
v 10.246656 4.270747 4.618819
v 10.284085 4.270747 4.831091
v 10.251743 4.032692 4.808445
v 10.064501 4.032692 4.677336
v 10.032159 4.270747 4.654689
v 10.244431 4.270747 4.617260
v 10.221785 4.032692 4.649602
v 10.250186 4.032692 4.810673
v 10.282528 4.270747 4.833319
v 10.070256 4.270747 4.870749
v 10.092901 4.032692 4.838406
v 10.090674 4.032692 4.836846
v 10.068028 4.270747 4.869188
v 10.030599 4.270747 4.656916
v 10.062941 4.032692 4.679562
v -9.714030 9.192688 -4.833069
v -9.700525 9.430742 -4.870170
v -9.609431 9.430742 -4.674819
v -9.646533 9.192688 -4.688322
v -9.861329 9.192688 -4.766502
v -9.898431 9.430742 -4.780006
v -9.703079 9.430742 -4.871100
v -9.716582 9.192688 -4.833999
v -9.647461 9.192688 -4.685767
v -9.610360 9.430742 -4.672263
v -9.805712 9.430742 -4.581169
v -9.792209 9.192688 -4.618270
v -9.794764 9.192688 -4.619201
v -9.808268 9.430742 -4.582100
v -9.899361 9.430742 -4.777452
v -9.862260 9.192688 -4.763948
v -5.771582 9.192688 -4.741416
v -5.743664 9.430742 -4.769333
v -5.743664 9.430742 -4.553787
v -5.771582 9.192688 -4.581705
v -5.933214 9.192688 -4.743337
v -5.961132 9.430742 -4.771255
v -5.745585 9.430742 -4.771255
v -5.773503 9.192688 -4.743337
v -5.773503 9.192688 -4.579781
v -5.745585 9.430742 -4.551863
v -5.961132 9.430742 -4.551863
v -5.933214 9.192688 -4.579782
v -5.935136 9.192688 -4.581705
v -5.963054 9.430742 -4.553787
v -5.963054 9.430742 -4.769333
v -5.935135 9.192688 -4.741416
v 2.049703 9.192688 -4.696165
v 2.010221 9.430742 -4.696165
v 2.162635 9.430742 -4.848579
v 2.162635 9.192688 -4.809097
v 2.162635 9.192688 -4.580515
v 2.162634 9.430742 -4.541033
v 2.010220 9.430742 -4.693448
v 2.049702 9.192688 -4.693448
v 2.165353 9.192688 -4.809099
v 2.165354 9.430742 -4.848581
v 2.317768 9.430742 -4.696167
v 2.278286 9.192688 -4.696166
v 2.278285 9.192688 -4.693447
v 2.317767 9.430742 -4.693447
v 2.165353 9.430742 -4.541032
v 2.165353 9.192688 -4.580514
v 9.986343 9.192688 -4.805527
v 9.958426 9.430742 -4.833446
v 10.173972 9.430742 -4.833445
v 10.146054 9.192688 -4.805527
v 9.984422 9.192688 -4.643896
v 9.956504 9.430742 -4.615978
v 9.956504 9.430742 -4.831524
v 9.984422 9.192688 -4.803607
v 10.147978 9.192688 -4.803607
v 10.175897 9.430742 -4.831524
v 10.175897 9.430742 -4.615978
v 10.147978 9.192688 -4.643896
v 10.146054 9.192688 -4.641973
v 10.173972 9.430742 -4.614055
v 9.958426 9.430742 -4.614055
v 9.986343 9.192688 -4.641973
v 9.955238 9.192688 4.689843
v 9.917102 9.430742 4.679624
v 10.103770 9.430742 4.571850
v 10.093552 9.192688 4.609987
v 10.034389 9.192688 4.830780
v 10.024171 9.430742 4.868917
v 9.916397 9.430742 4.682249
v 9.954535 9.192688 4.692467
v 10.096177 9.192688 4.610689
v 10.106397 9.430742 4.572552
v 10.214170 9.430742 4.759221
v 10.176033 9.192688 4.749002
v 10.175328 9.192688 4.751629
v 10.213466 9.430742 4.761848
v 10.026796 9.430742 4.869621
v 10.037015 9.192688 4.831485
v 2.056931 9.192688 4.624580
v 2.019830 9.430742 4.611076
v 2.215182 9.430742 4.519982
v 2.201678 9.192688 4.557084
v 2.123498 9.192688 4.771880
v 2.109994 9.430742 4.808981
v 2.018900 9.430742 4.613630
v 2.056001 9.192688 4.627133
v 2.204233 9.192688 4.558012
v 2.217737 9.430742 4.520910
v 2.308831 9.430742 4.716262
v 2.271730 9.192688 4.702758
v 2.270799 9.192688 4.705314
v 2.307900 9.430742 4.718818
v 2.112548 9.430742 4.809912
v 2.126052 9.192688 4.772810
v -5.836635 9.192688 4.557136
v -5.833193 9.430742 4.517804
v -5.694643 9.430742 4.682922
v -5.733974 9.192688 4.679482
v -5.961687 9.192688 4.659559
v -6.001019 9.430742 4.656117
v -5.835900 9.430742 4.517567
v -5.839342 9.192688 4.556899
v -5.734210 9.192688 4.682189
v -5.694878 9.430742 4.685631
v -5.859996 9.430742 4.824182
v -5.856555 9.192688 4.784850
v -5.859264 9.192688 4.784612
v -5.862706 9.430742 4.823944
v -6.001256 9.430742 4.658825
v -5.961925 9.192688 4.662266
v -9.699719 9.192688 4.653618
v -9.674341 9.430742 4.623374
v -9.655555 9.430742 4.838099
v -9.685801 9.192688 4.812721
v -9.860904 9.192688 4.665791
v -9.891149 9.430742 4.640412
v -9.676422 9.430742 4.621626
v -9.701800 9.192688 4.651872
v -9.687546 9.192688 4.814805
v -9.657301 9.430742 4.840184
v -9.872027 9.430742 4.858970
v -9.846648 9.192688 4.828724
v -9.848732 9.192688 4.826976
v -9.874110 9.430742 4.857221
v -9.892897 9.430742 4.642494
v -9.862651 9.192688 4.667873
vn -0.6386 -0.1162 0.7607
vn -0.6380 -0.1166 0.7611
vn -0.6384 -0.1165 0.7608
vn -0.6386 -0.1160 0.7608
vn 0.7608 -0.1165 0.6384
vn -0.7608 -0.1162 -0.6385
vn -0.7608 -0.1165 -0.6384
vn 0.6384 -0.1165 -0.7608
vn 0.0001 -0.1162 -0.9932
vn -0.0000 -0.1165 -0.9932
vn -0.9932 -0.1165 -0.0000
vn 0.9932 -0.1165 -0.0000
vn 0.9932 -0.1162 -0.0000
vn -0.0000 -0.1165 0.9932
vn 0.5698 -0.1162 -0.8136
vn 0.5697 -0.1165 -0.8136
vn -0.8136 -0.1165 -0.5697
vn 0.8136 -0.1165 0.5697
vn 0.8136 -0.1162 0.5697
vn -0.5697 -0.1165 0.8136
vn 0.8137 -0.1162 -0.5696
vn 0.8136 -0.1165 -0.5697
vn -0.5697 -0.1165 -0.8136
vn 0.5697 -0.1165 0.8136
vn 0.5697 -0.1162 0.8136
vn -0.8136 -0.1165 0.5697
vn 0.9002 -0.1162 -0.4197
vn 0.9001 -0.1165 -0.4197
vn -0.4197 -0.1165 -0.9001
vn 0.4197 -0.1165 0.9001
vn 0.4197 -0.1162 0.9002
vn -0.9001 -0.1165 0.4197
vn 0.9894 -0.1162 0.0866
vn 0.9894 -0.1165 0.0866
vn 0.0866 -0.1165 -0.9894
vn -0.0866 -0.1165 0.9894
vn -0.0866 -0.1161 0.9894
vn -0.9894 -0.1165 -0.0866
vn 0.4197 -0.1161 0.9002
vn 0.7024 -0.1162 -0.7023
vn 0.7023 -0.1165 -0.7023
vn -0.7023 -0.1165 -0.7023
vn 0.7023 -0.1165 0.7023
vn 0.7023 -0.1162 0.7024
vn -0.7023 -0.1165 0.7023
vn 0.8136 -0.1161 0.5697
vn -0.0866 -0.1162 0.9894
vn 0.9782 -0.1162 -0.1724
vn 0.9781 -0.1165 -0.1725
vn -0.1725 -0.1165 -0.9781
vn 0.1725 -0.1165 0.9781
vn 0.1724 -0.1162 0.9782
vn -0.9781 -0.1165 0.1725
vn -0.4966 -0.1165 -0.8601
vn -0.8601 -0.1165 0.4966
vn 0.8601 -0.1165 -0.4966
vn 0.4966 -0.1165 0.8601
vn 0.7608 -0.1165 -0.6384
vn -0.6384 -0.1165 -0.7608
vn 0.6384 -0.1165 0.7608
vn -0.7608 -0.1165 0.6384
vn 0.9894 -0.1165 -0.0866
vn -0.0866 -0.1165 -0.9894
vn 0.0866 -0.1165 0.9894
vn -0.9894 -0.1165 0.0866
vt 0.117658 0.999500
vt 0.000500 0.000500
vt 0.905045 0.000500
vt 0.787887 0.999500
s 1
usemtl lamp_glass_01
f 1/1/1 2/2/2 3/3/3 4/4/4
f 5/1/5 8/4/5 7/3/5 6/2/5
f 9/1/6 10/2/7 11/3/7 12/4/7
f 13/1/8 16/4/8 15/3/8 14/2/8
f 17/1/9 18/2/10 19/3/10 20/4/10
f 21/1/11 22/2/11 23/3/11 24/4/11
f 25/1/12 26/2/12 27/3/12 28/4/13
f 29/1/14 30/2/14 31/3/14 32/4/14
f 33/1/15 34/2/16 35/3/16 36/4/16
f 37/1/17 38/2/17 39/3/17 40/4/17
f 41/1/18 42/2/18 43/3/18 44/4/19
f 45/1/20 46/2/20 47/3/20 48/4/20
f 49/1/21 50/2/22 51/3/22 52/4/22
f 53/1/23 54/2/23 55/3/23 56/4/23
f 57/1/24 58/2/24 59/3/24 60/4/25
f 61/1/26 62/2/26 63/3/26 64/4/26
f 65/1/27 66/2/28 67/3/28 68/4/28
f 69/1/29 70/2/29 71/3/29 72/4/29
f 73/1/30 74/2/30 75/3/30 76/4/31
f 77/1/32 78/2/32 79/3/32 80/4/32
f 81/1/33 82/2/34 83/3/34 84/4/34
f 85/1/35 86/2/35 87/3/35 88/4/35
f 89/1/36 90/2/36 91/3/36 92/4/37
f 93/1/38 94/2/38 95/3/38 96/4/38
f 97/1/27 98/2/28 99/3/28 100/4/28
f 101/1/29 102/2/29 103/3/29 104/4/29
f 105/1/30 106/2/30 107/3/30 108/4/39
f 109/1/32 110/2/32 111/3/32 112/4/32
f 113/1/40 114/2/41 115/3/41 116/4/41
f 117/1/42 118/2/42 119/3/42 120/4/42
f 121/1/43 122/2/43 123/3/43 124/4/44
f 125/1/45 126/2/45 127/3/45 128/4/45
f 129/1/15 130/2/16 131/3/16 132/4/16
f 133/1/17 134/2/17 135/3/17 136/4/17
f 137/1/18 138/2/18 139/3/18 140/4/46
f 141/1/20 142/2/20 143/3/20 144/4/20
f 145/1/21 146/2/22 147/3/22 148/4/22
f 149/1/23 150/2/23 151/3/23 152/4/23
f 153/1/24 154/2/24 155/3/24 156/4/25
f 157/1/26 158/2/26 159/3/26 160/4/26
f 161/1/27 162/2/28 163/3/28 164/4/28
f 165/1/29 166/2/29 167/3/29 168/4/29
f 169/1/30 170/2/30 171/3/30 172/4/31
f 173/1/32 174/2/32 175/3/32 176/4/32
f 177/1/33 178/2/34 179/3/34 180/4/34
f 181/1/35 182/2/35 183/3/35 184/4/35
f 185/1/36 186/2/36 187/3/36 188/4/47
f 189/1/38 190/2/38 191/3/38 192/4/38
f 193/1/27 194/2/28 195/3/28 196/4/28
f 197/1/29 198/2/29 199/3/29 200/4/29
f 201/1/30 202/2/30 203/3/30 204/4/39
f 205/1/32 206/2/32 207/3/32 208/4/32
f 209/1/48 210/2/49 211/3/49 212/4/49
f 213/1/50 214/2/50 215/3/50 216/4/50
f 217/1/51 218/2/51 219/3/51 220/4/52
f 221/1/53 222/2/53 223/3/53 224/4/53
f 225/1/28 226/2/28 227/3/28 228/4/28
f 229/1/29 230/2/29 231/3/29 232/4/29
f 233/1/30 234/2/30 235/3/30 236/4/30
f 237/1/32 238/2/32 239/3/32 240/4/32
f 241/1/12 242/2/12 243/3/12 244/4/12
f 245/1/10 246/2/10 247/3/10 248/4/10
f 249/1/14 250/2/14 251/3/14 252/4/14
f 253/1/11 254/2/11 255/3/11 256/4/11
f 257/1/42 258/2/42 259/3/42 260/4/42
f 261/1/45 262/2/45 263/3/45 264/4/45
f 265/1/41 266/2/41 267/3/41 268/4/41
f 269/1/43 270/2/43 271/3/43 272/4/43
f 273/1/10 274/2/10 275/3/10 276/4/10
f 277/1/11 278/2/11 279/3/11 280/4/11
f 281/1/12 282/2/12 283/3/12 284/4/12
f 285/1/14 286/2/14 287/3/14 288/4/14
f 289/1/54 290/2/54 291/3/54 292/4/54
f 293/1/55 294/2/55 295/3/55 296/4/55
f 297/1/56 298/2/56 299/3/56 300/4/56
f 301/1/57 302/2/57 303/3/57 304/4/57
f 305/1/29 306/2/29 307/3/29 308/4/29
f 309/1/32 310/2/32 311/3/32 312/4/32
f 313/1/28 314/2/28 315/3/28 316/4/28
f 317/1/30 318/2/30 319/3/30 320/4/30
f 321/1/58 322/2/58 323/3/58 324/4/58
f 325/1/59 326/2/59 327/3/59 328/4/59
f 329/1/60 330/2/60 331/3/60 332/4/60
f 333/1/61 334/2/61 335/3/61 336/4/61
f 337/1/62 338/2/62 339/3/62 340/4/62
f 341/1/63 342/2/63 343/3/63 344/4/63
f 345/1/64 346/2/64 347/3/64 348/4/64
f 349/1/65 350/2/65 351/3/65 352/4/65
