# Blender 4.1.1
# www.blender.org
mtllib chain.mtl
o chain
v 511.871307 134.340210 -217.913803
v 487.763794 213.697311 -217.913788
v 487.160889 213.514114 -221.487183
v 511.268402 134.157013 -221.487198
v 465.380798 133.751312 -219.700500
v 489.071991 213.319916 -219.700485
v 485.594208 214.354919 -219.700485
v 461.903015 134.786316 -219.700500
v 513.305725 134.776016 -219.700500
v 489.198212 214.133011 -219.700485
v 485.726410 213.078308 -219.700485
v 509.833893 133.721313 -219.700500
v 463.435211 134.411514 -221.487198
v 488.672913 213.503220 -221.487183
v 488.072601 213.694717 -217.913788
v 462.834991 134.603012 -217.913803
v -594.964783 134.340210 -217.913803
v -619.072327 213.697311 -217.913788
v -619.675171 213.514114 -221.487183
v -595.567627 134.157013 -221.487198
v -641.455200 133.751312 -219.700500
v -617.763977 213.319916 -219.700485
v -621.241821 214.354919 -219.700485
v -644.933105 134.786316 -219.700500
v -593.530273 134.776016 -219.700500
v -617.637817 214.133011 -219.700485
v -621.109680 213.078308 -219.700485
v -597.002197 133.721313 -219.700500
v -643.400879 134.411514 -221.487198
v -618.163086 213.503220 -221.487183
v -618.763428 213.694717 -217.913788
v -644.001099 134.603012 -217.913803
v -643.443481 134.340179 141.554993
v -619.336121 213.697281 141.555008
v -618.733215 213.514084 145.128418
v -642.840576 134.156982 145.128403
v -596.953125 133.751282 143.341705
v -620.644287 213.319885 143.341721
v -617.166504 214.354889 143.341721
v -593.475281 134.786285 143.341705
v -644.878113 134.775986 143.341705
v -620.770508 214.132980 143.341812
v -617.298584 213.078278 143.341812
v -641.406128 133.721283 143.341705
v -595.007507 134.411484 145.128403
v -620.245178 213.503189 145.128418
v -619.644897 213.694687 141.555008
v -594.407227 134.602982 141.554993
v 463.392609 134.340179 141.554794
v 487.500000 213.697281 141.554916
v 488.102905 213.514084 145.128311
v 463.995392 134.156982 145.128296
v 509.882904 133.751282 143.341599
v 486.191803 213.319885 143.341614
v 489.669586 214.354889 143.341614
v 513.360779 134.786285 143.341599
v 461.958008 134.775986 143.341599
v 486.065613 214.132980 143.341614
v 489.537506 213.078278 143.341614
v 465.429901 133.721283 143.341599
v 511.828613 134.411484 145.128296
v 486.590790 213.503189 145.128311
v 487.191193 213.694687 141.554916
v 512.428772 134.602982 141.554794
vn -0.9423 -0.2863 0.1737
vn -0.0000 -0.0000 1.0000
vn 0.9382 -0.2994 0.1736
vn 0.9382 -0.2994 0.1737
vn -0.9423 -0.2863 0.1736
vn 0.9423 -0.2863 -0.1737
vn -0.0000 -0.0000 -1.0000
vn -0.9382 -0.2994 -0.1736
vn 0.9423 -0.2863 -0.1736
vn -0.9382 -0.2994 -0.1737
vt 0.677000 0.000000
vt 0.677000 3.098200
vt 0.146700 3.098200
vt 0.146700 0.000000
vt 0.678900 3.101300
vt 0.148500 3.103300
vt 0.677400 3.101200
vt 0.147100 3.101200
s 1
usemtl chain.001
f 1/1/1 2/2/1 3/3/1
f 1/1/1 3/3/1 4/4/1
f 5/1/2 6/5/2 7/6/2
f 5/1/2 7/6/2 8/4/2
f 9/1/2 10/2/2 11/3/2
f 9/1/2 11/3/2 12/4/2
f 13/1/3 14/7/4 15/8/4
f 13/1/3 15/8/4 16/4/3
f 17/1/5 18/2/5 19/3/5
f 17/1/5 19/3/5 20/4/5
f 21/1/2 22/5/2 23/6/2
f 21/1/2 23/6/2 24/4/2
f 25/1/2 26/2/2 27/3/2
f 25/1/2 27/3/2 28/4/2
f 29/1/3 30/7/4 31/8/4
f 29/1/3 31/8/4 32/4/3
f 33/1/6 34/2/6 35/3/6
f 33/1/6 35/3/6 36/4/6
f 37/1/7 38/5/7 39/6/7
f 37/1/7 39/6/7 40/4/7
f 41/1/7 42/2/7 43/3/7
f 41/1/7 43/3/7 44/4/7
f 45/1/8 46/7/8 47/8/8
f 45/1/8 47/8/8 48/4/8
f 49/1/9 50/2/6 51/3/6
f 49/1/9 51/3/6 52/4/9
f 53/1/7 54/5/7 55/6/7
f 53/1/7 55/6/7 56/4/7
f 57/1/7 58/2/7 59/3/7
f 57/1/7 59/3/7 60/4/7
f 61/1/8 62/7/10 63/8/10
f 61/1/8 63/8/10 64/4/8
